<?xml version="1.0" encoding="UTF-8" standalone="no"?><!DOCTYPE svg PUBLIC "-//W3C//DTD SVG 1.1//EN" "http://www.w3.org/Graphics/SVG/1.1/DTD/svg11.dtd"><svg width="100%" height="100%" viewBox="0 0 1024 1025" version="1.1" xmlns="http://www.w3.org/2000/svg" xmlns:xlink="http://www.w3.org/1999/xlink" xml:space="preserve" xmlns:serif="http://www.serif.com/" style="fill-rule:evenodd;clip-rule:evenodd;stroke-linejoin:round;stroke-miterlimit:2;"><rect id="icon-square-dark" x="0" y="0.721" width="1024" height="1024" style="fill:none;"/><clipPath id="_clip1"><rect x="0" y="0.721" width="1024" height="1024"/></clipPath><g clip-path="url(#_clip1)"><path d="M1024,205.521l0,614.4c0,113.032 -91.768,204.8 -204.8,204.8l-614.4,0c-113.032,0 -204.8,-91.768 -204.8,-204.8l0,-614.4c0,-113.032 91.768,-204.8 204.8,-204.8l614.4,0c113.032,0 204.8,91.768 204.8,204.8Z" style="fill:#001338;"/><g><path d="M373.871,320.302c-0.135,-0.021 -0.261,-0.079 -0.387,-0.137l0.12,0.042c0.072,0.061 0.195,0.034 0.267,0.095Zm18.071,377.82l-0.298,0.191c0.083,-0.084 0.191,-0.137 0.298,-0.191Zm-18.458,-377.957l-0.368,-0.129c0.128,0.02 0.249,0.074 0.368,0.129Zm18.74,377.774c-0.079,0.079 -0.18,0.131 -0.282,0.183l0.077,-0.049c0.08,-0.014 0.124,-0.121 0.205,-0.134Zm-0,-0c0.001,-0.001 0.283,-1.271 0.51,-2.627c0.266,-1.594 0.156,-1.613 0.456,-2.718c0.869,-3.199 1.038,-5.487 1.051,-5.528c0.022,-0.072 1.102,-2.073 1.848,-4.743c0.397,-1.42 1.038,-3.132 1.162,-6.632c0.014,-0.396 0.399,-2.583 -0.029,-6.936c-0.28,-2.851 -0.175,-2.857 -0.455,-5.709c-0.05,-0.501 -0.358,-5.94 -0.387,-6.457c-0,-0.006 -0.079,-3.237 0.041,-6.194c0.189,-4.643 0.993,-17.135 11.606,-26.203c16.401,-14.014 38.72,-15.79 58.837,-4.96l0,-38.362c-31.076,-11.952 -52.544,2.673 -74.68,15.006c-3.733,2.08 -7.477,4.128 -11.259,6.077c3.434,30.959 -10.171,60.807 -41.287,84.411c-6.86,5.205 -25.72,-19.656 -18.86,-24.861c17.997,-13.652 28.185,-30.006 29.296,-47.508c-21.323,4.988 -45.416,2.723 -75.806,-15.916c-7.341,-4.502 8.973,-31.103 16.314,-26.601c11.095,6.805 21.043,10.526 30.164,12.052c4.644,-11.936 6.541,-28.144 1.239,-40.343c-0.895,-2.06 -1.178,-2.572 -2.959,-5.263c-0.173,-0.261 -0.667,-1.009 -2.463,-3.043c-0.601,-0.682 -2.274,-2.287 -2.893,-2.802c-0.598,-0.497 -0.609,-0.48 -1.199,-0.989c-1.955,-1.689 -3.381,-2.291 -5.418,-3.435c-0.173,-0.098 -1.2,-0.806 -5.935,-2.628c-1.736,-0.669 -3.288,-1.113 -3.298,-1.117c-0.087,-0.037 -1.294,-1.115 -4.331,-3.087c-0.508,-0.33 -1.008,-0.878 -2.851,-2.369c-0.699,-0.565 -0.687,-0.577 -0.759,-0.605c-0.307,-0.122 -0.319,0.179 -0.627,0.057c0.146,-0.15 0.447,-0.061 0.594,-0.211c0.011,-0.011 0.714,-1.404 1.876,-3.39c0.02,-0.034 -0.047,-0.217 2.117,-2.579c1.206,-1.315 2.361,-2.441 2.367,-2.444c0.678,-0.39 3.196,-1.365 3.478,-1.474c0.137,-0.053 2.905,-1.263 7.923,-2.165c1.995,-0.358 3.643,-0.628 7.296,-0.513c5.249,0.165 8.184,0.997 8.873,1.192c4.536,1.286 7.519,2.784 10.638,4.788c1.088,0.699 4.964,3.174 9.64,8.764c1.523,1.821 3.224,4.625 3.479,5.044c9.212,15.181 10.772,35.83 6.777,54.84c7.869,-2.969 15.306,-7.03 22.687,-11.143c27.115,-15.106 53.77,-30.388 89.867,-20.659l0,-74.508c-10.794,4.178 -20.333,6.933 -28.856,8.589c0.814,12.968 -1.034,30.363 -15.164,41.458c-7.289,5.724 -15.026,7.069 -15.532,7.172c-4.514,0.922 -7.11,0.884 -9.116,0.851c-0.147,-0.002 -1.77,0.077 -6.018,-0.633c-2.194,-0.367 -7.966,-2.355 -8.451,-2.575c-1.481,-0.671 -5.224,-2.611 -6.031,-3.123c-1.48,-0.942 -2.504,-1.63 -3.657,-2.423c-0.329,-0.227 -0.258,-0.288 -0.475,-0.627c-0.2,-0.314 -2.185,-3.422 -2.43,-3.959c-0.011,-0.022 -0.564,-1.431 -1.012,-2.622c-0.318,-0.847 -0.278,-0.864 -0.379,-1.019c-0.182,-0.278 -0.346,-0.089 -0.527,-0.367l0.428,0.099c0.064,-0.063 1.145,-1.106 2.494,-2.467c0.948,-0.957 1.048,-0.834 4.004,-3.211c0.158,-0.127 0.292,-0.292 0.473,-0.383c0.034,-0.017 1.474,-0.403 3.876,-1.205c0.525,-0.175 2.379,-0.626 5.167,-1.602c0.625,-0.218 2.874,-0.678 5.755,-1.742c0.792,-0.293 1.459,-0.402 2.805,-0.865c1.194,-0.41 1.566,-0.423 2.835,-0.884c1.049,-0.381 1.909,-0.545 3.239,-1.165c1.159,-0.54 3.544,-1.294 4.849,-3.665c1.888,-3.428 2.015,-8.978 1.661,-13.737c-15.698,-2.117 -27.426,-8.451 -38.801,-15.372c-8.94,-5.439 -17.515,-11.477 -29.593,-13.613c-12.175,-2.155 -27.651,-0.176 -50.212,8.807c-8,3.185 -19.543,-25.807 -11.543,-28.992c25.436,-10.127 44.321,-12.934 59.461,-11.745c4.521,-13.931 5.445,-25.932 1.582,-35.859c-4.075,-10.473 -13.623,-17.817 -27.751,-22.933c-8.097,-2.932 2.528,-32.274 10.625,-29.342c24.232,8.775 39.218,22.997 46.208,40.959c5.979,15.367 6.089,34.079 -0.651,55.715c1.575,0.775 3.119,1.578 4.639,2.4c13.863,7.496 24.808,18.467 44.522,19.444c12.746,0.633 28.892,-2.961 51.576,-13.191l0,-39.794c-9.611,4.32 -20.679,6.402 -31.573,6.132c-23.544,-0.583 -33.447,-11.732 -34.534,-12.844c-8.599,-8.801 -10.511,-18.956 -11.241,-23.019c-0.919,-5.12 -0.999,-8.065 -1.321,-12.452c-0.118,-1.607 -0.061,-2.961 -0.36,-6.271c-0.053,-0.586 -0.036,-4.768 -1.196,-8.463c-0.731,-2.328 -0.727,-3.331 -3.073,-7.003c-0.238,-0.373 -1.299,-2.216 -3.59,-4.681c-0.436,-0.469 -0.309,-0.55 -1.262,-2.317c-1.152,-2.138 -2.35,-3.861 -2.363,-3.887c-0.296,-0.611 -0.913,-1.976 -2.33,-4.46c-0.049,-0.087 -0.074,-0.195 -0.15,-0.26c0.129,0.021 0.112,-0.059 1.535,-0.553c0.292,-0.102 2.852,-0.991 3.686,-1.158c0.988,-0.197 3.674,-0.336 3.994,-0.353c2.046,-0.106 3.641,-0.058 3.857,-0.054c0.085,0.002 5.282,1.476 9.539,4.05c6.512,3.937 9.792,8.193 10.469,9.071c3.996,5.186 6.199,10.457 7.313,13.231c0.101,0.252 1.788,5.17 2.705,9.216c2.422,10.683 2.365,10.71 3.708,14.01c1.472,3.622 3.697,4.954 7.659,5.995c12.666,3.33 33.655,-1.686 35.51,-12.287c0.129,-0.741 0.22,-1.322 0.301,-1.811c-8.064,-36.339 -33.745,-57.986 -72.654,-77.441c-7.703,-3.851 6.253,-31.763 13.955,-27.911c59.698,29.849 92.622,65.207 92.622,131.951l-0,249.644c-0,56.973 -29.339,108.394 -72.748,130.099c-7.702,3.851 -21.658,-24.06 -13.956,-27.911c28.038,-14.019 47.691,-44.403 53.624,-79.669c-0.929,-1.064 -1.512,-2.193 -3.384,-4.256c-6.375,-7.029 -19.673,-15.144 -30.993,-7.943c-1.413,0.898 -2.471,1.833 -2.483,1.841c-0.142,0.094 -0.466,0.735 -0.732,2.052c-0.153,0.761 -0.542,2.054 -0.905,6.41c-0.054,0.648 -0.65,6.411 -1.048,8.681c-0.853,4.867 -1.464,6.819 -1.645,7.398c-1.293,4.134 -2.913,8.005 -5.05,11.645c-0.096,0.164 -2.235,3.65 -5.924,7.293c-0.794,0.784 -3.249,3.28 -8.379,6.161c-0.556,0.312 -6.541,1.058 -7.21,0.996c-2.066,-0.191 -4.366,-0.634 -4.742,-0.706c-0.091,-0.018 -0.18,-0.069 -0.271,-0.054Zm239.552,-0c0.11,0.041 0.203,0.117 0.297,0.192l-0.092,-0.058c-0.045,-0.069 -0.16,-0.066 -0.205,-0.134Zm0,-0c-0.113,-0.043 -0.109,0.04 -1.479,0.276c-0.281,0.048 -2.721,0.468 -3.534,0.484c-0.972,0.02 -3.401,-0.308 -3.695,-0.348c-1.58,-0.213 -2.865,-0.483 -3.038,-0.518c-0.684,-0.141 -0.652,-0.221 -1.256,-0.574c-4.569,-2.664 -7.457,-5.299 -10.146,-8.46c-2.422,-2.846 -3.517,-4.783 -3.771,-5.233c-2.894,-5.12 -4.346,-9.935 -4.963,-11.961c-0.158,-0.52 -1.236,-5.212 -1.61,-8.192c-0.658,-5.238 -0.932,-8.685 -1.079,-9.869c-0.042,-0.337 -0.295,-2.364 -0.774,-4.163c-0.315,-1.182 -0.364,-1.201 -1.331,-1.949c-1.681,-1.3 -9.319,-7.526 -22.117,-1.258c-8.111,3.973 -12.458,10.228 -12.807,10.724c-0.419,0.387 -0.82,0.797 -1.218,1.212c5.87,35.398 25.556,65.919 53.676,79.98c7.702,3.851 -6.254,31.762 -13.956,27.911c-43.409,-21.705 -72.748,-73.126 -72.748,-130.099l0,-249.644c0,-66.744 32.924,-102.102 92.622,-131.951c7.702,-3.852 21.658,24.06 13.955,27.911c-38.909,19.455 -64.59,41.102 -72.654,77.441c0.081,0.489 0.172,1.07 0.301,1.811c1.951,11.145 24.997,16.081 37.312,11.741c3.7,-1.303 4.852,-3.003 6.007,-5.826c1.171,-2.86 1.152,-3.021 3.558,-13.633c0.704,-3.104 2.207,-8.019 2.975,-9.886c1.383,-3.363 3.713,-8.509 7.822,-13.543c0.12,-0.146 2.504,-2.989 6.345,-5.843c2.087,-1.552 5.719,-4.087 12.405,-6.168c0.761,-0.237 0.775,-0.141 1.571,-0.143c3.316,-0.008 6.021,0.335 6.724,0.418c0.063,0.008 2.012,0.546 4.347,1.382c0.84,0.301 0.831,0.332 0.909,0.333c-0,0 -0.848,1.448 -1.689,3.101c-0.584,1.15 -0.51,1.187 -1.103,2.087c-2.094,3.175 -3.065,5.47 -3.091,5.5c-0.058,0.068 -2.249,2.204 -4.503,6.011c-1.286,2.173 -1.768,3.674 -2.551,6.483c-0.912,3.271 -0.879,5.846 -1.106,8.798c-0.242,3.139 -0.126,3.142 -0.356,6.413c-0.227,3.224 -0.396,7.451 -1.635,13.404c-0.655,3.144 -3.805,18.855 -19.369,27.473c-15.18,8.406 -38.902,8.633 -57.59,0.248l-0,39.801c22.684,10.23 38.83,13.824 51.576,13.191c19.714,-0.977 30.659,-11.948 44.522,-19.444c1.52,-0.822 3.064,-1.625 4.639,-2.4c-6.74,-21.636 -6.63,-40.348 -0.651,-55.715c6.99,-17.962 21.976,-32.184 46.208,-40.959c8.097,-2.932 18.722,26.41 10.625,29.342c-14.128,5.116 -23.676,12.46 -27.751,22.933c-3.863,9.927 -2.939,21.928 1.582,35.859c15.14,-1.189 34.025,1.618 59.461,11.745c8,3.185 -3.543,32.177 -11.543,28.992c-22.561,-8.983 -38.037,-10.962 -50.212,-8.807c-12.078,2.136 -20.653,8.174 -29.593,13.613c-11.376,6.922 -23.104,13.255 -38.801,15.372c-0.428,5.705 -0.202,13.052 3.354,15.704c1.143,0.852 1.563,0.997 3.468,1.838c0.932,0.412 2.076,0.745 2.26,0.799c0.559,0.163 1.242,0.466 2.667,0.848c0.838,0.225 1.102,0.389 2.654,0.823c1.775,0.497 2.465,0.958 6.313,1.914c0.5,0.125 1.857,0.688 5.091,1.585c0.943,0.262 1.293,0.455 4.242,1.314c0.377,0.11 0.286,0.256 3.896,2.975c0.393,0.296 0.375,0.312 0.719,0.659c1.349,1.361 2.43,2.404 2.494,2.467l0.428,-0.099c-0.117,0.18 -0.409,0.188 -0.527,0.367c-0.002,0.004 -0.467,1.278 -1.151,3.032c-0.282,0.725 -0.338,0.801 -1.308,2.388c-0.864,1.414 -1.706,2.715 -1.708,2.717c-0.007,0.007 -3.161,2.183 -4.31,2.817c-4.351,2.403 -5.725,2.901 -6.25,3.091c-5.301,1.921 -7.54,2.278 -8.216,2.386c-2.595,0.414 -4.51,0.662 -8.451,0.524c-1.094,-0.038 -6.071,-0.417 -10.723,-2.061c-4.487,-1.586 -25.283,-9.194 -26.273,-39.83c-0.084,-2.605 -0.017,-5.158 0.137,-7.562c-8.526,-1.656 -18.069,-4.411 -28.868,-8.591l-0,74.508c36.097,-9.729 62.752,5.553 89.867,20.659c7.381,4.113 14.818,8.174 22.687,11.143c-3.995,-19.01 -2.435,-39.659 6.777,-54.84c1.617,-2.665 4.13,-6.469 8.989,-10.695c0.539,-0.469 3.325,-3.041 8.687,-5.685c1.178,-0.581 5.115,-2.119 7.812,-2.632c0.886,-0.169 5.662,-1.078 11.249,-0.731c1.399,0.087 4.062,0.631 4.412,0.703c3.006,0.615 5.512,1.303 9.72,3.194c0.316,0.142 0.345,0.095 0.594,0.342c1.262,1.254 2.323,2.364 3.844,4.14c0.563,0.657 2.37,4.131 2.38,4.141c0.147,0.15 0.448,0.061 0.594,0.211c-0.195,0.077 -0.432,-0.135 -0.627,-0.057c-0.008,0.003 -1.241,0.983 -2.225,1.822c-0.646,0.551 -0.97,0.882 -1.385,1.152c-3.037,1.972 -4.244,3.05 -4.331,3.087c-0.05,0.021 -1.937,0.542 -4.198,1.476c-1.239,0.512 -3.056,1.084 -5.69,2.649c-0.247,0.147 -2.735,1.234 -4.969,3.236c-0.545,0.488 -0.628,0.39 -3.009,2.692c-0.587,0.567 -2.185,2.361 -2.859,3.276c-0.187,0.253 -1.575,2.279 -2.135,3.277c-6.151,10.974 -5.832,28.183 -0.055,43.013c9.118,-1.527 19.062,-5.248 30.153,-12.051c7.341,-4.502 23.655,22.099 16.314,26.601c-30.39,18.639 -54.483,20.904 -75.806,15.916c1.111,17.502 11.299,33.856 29.296,47.508c6.86,5.205 -12,30.066 -18.86,24.861c-31.116,-23.604 -44.721,-53.452 -41.287,-84.411c-3.782,-1.949 -7.526,-3.997 -11.259,-6.077c-22.136,-12.333 -43.604,-26.958 -74.68,-15.006l-0,38.37c17.207,-9.201 38.472,-10.52 56.47,3.06c3.154,2.38 12.72,9.509 13.874,26.267c0.198,2.88 0.178,5.831 0.143,7.959c-0.003,0.221 -0.256,4.166 -0.353,6.053c-0.028,0.55 -0.264,2.489 -0.377,4.907c-0.048,1.047 -0.548,4.151 -0.185,7.797c0.079,0.796 -0.032,3.537 1.611,8.356c0.657,1.925 1.43,3.394 1.44,3.427c0.07,0.228 0.077,2.025 1.179,5.99c0.06,0.216 0.139,1.593 0.779,4.614c0.019,0.09 0.009,0.192 0.059,0.269Zm18.72,-377.767l0.388,-0.136c-0.118,0.069 -0.253,0.102 -0.388,0.136Zm-0.367,0.13c0.112,-0.065 0.239,-0.098 0.367,-0.13l-0.1,0.035c-0.095,-0.002 -0.173,0.097 -0.267,0.095Zm-18.056,377.829l0.283,0.182c-0.105,-0.04 -0.194,-0.11 -0.283,-0.182Z" style="fill:#bc98ff;"/><path d="M376.188,167.721c33.226,0 60.201,26.975 60.201,60.201c0,33.225 -26.975,60.2 -60.201,60.2c-33.225,0 -60.2,-26.975 -60.2,-60.2c-0,-33.226 26.975,-60.201 60.2,-60.201Zm0,31.206c-16.003,-0 -28.995,12.992 -28.995,28.995c0,16.003 12.992,28.995 28.995,28.995c16.003,-0 28.996,-12.992 28.996,-28.995c-0,-16.003 -12.993,-28.995 -28.996,-28.995Zm-101.263,62.494c33.225,0 60.2,26.975 60.2,60.201c0,33.226 -26.975,60.201 -60.2,60.201c-33.226,-0 -60.201,-26.975 -60.201,-60.201c0,-33.226 26.975,-60.201 60.201,-60.201Zm-0,31.206c-16.003,-0 -28.995,12.992 -28.995,28.995c-0,16.003 12.992,28.995 28.995,28.995c16.003,0 28.995,-12.992 28.995,-28.995c-0,-16.003 -12.992,-28.995 -28.995,-28.995Zm-42.642,98.051c33.226,0 60.201,26.976 60.201,60.201c0,33.226 -26.975,60.201 -60.201,60.201c-33.225,-0 -60.2,-26.975 -60.2,-60.201c-0,-33.225 26.975,-60.201 60.2,-60.201Zm0,31.206c-16.003,-0 -28.995,12.992 -28.995,28.995c0,16.003 12.992,28.995 28.995,28.995c16.003,0 28.996,-12.992 28.996,-28.995c-0,-16.003 -12.993,-28.995 -28.996,-28.995Zm0.645,102.685c33.226,0 60.201,26.975 60.201,60.201c-0,33.226 -26.975,60.201 -60.201,60.201c-33.226,-0 -60.201,-26.975 -60.201,-60.201c0,-33.226 26.975,-60.201 60.201,-60.201Zm-0,31.206c-16.003,-0 -28.995,12.992 -28.995,28.995c-0,16.003 12.992,28.995 28.995,28.995c16.003,0 28.995,-12.992 28.995,-28.995c0,-16.003 -12.992,-28.995 -28.995,-28.995Zm59.556,93.845c33.226,0 60.201,26.975 60.201,60.201c-0,33.226 -26.975,60.201 -60.201,60.201c-33.226,-0 -60.201,-26.975 -60.201,-60.201c0,-33.226 26.975,-60.201 60.201,-60.201Zm0,31.206c-16.003,-0 -28.995,12.992 -28.995,28.995c-0,16.003 12.992,28.995 28.995,28.995c16.003,0 28.995,-12.992 28.995,-28.995c0,-16.003 -12.992,-28.995 -28.995,-28.995Zm102.933,56.494c33.226,-0 60.201,26.975 60.201,60.201c-0,33.225 -26.975,60.2 -60.201,60.2c-33.226,0 -60.201,-26.975 -60.201,-60.2c0,-33.226 26.975,-60.201 60.201,-60.201Zm-0,31.205c-16.003,0 -28.995,12.993 -28.995,28.996c-0,16.002 12.992,28.995 28.995,28.995c16.003,-0 28.995,-12.993 28.995,-28.995c0,-16.003 -12.992,-28.996 -28.995,-28.996Zm252.395,-600.804c33.225,0 60.2,26.975 60.2,60.201c0,33.225 -26.975,60.2 -60.2,60.2c-33.226,0 -60.201,-26.975 -60.201,-60.2c-0,-33.226 26.975,-60.201 60.201,-60.201Zm-0,31.206c-16.003,-0 -28.996,12.992 -28.996,28.995c0,16.003 12.993,28.995 28.996,28.995c16.003,-0 28.995,-12.992 28.995,-28.995c-0,-16.003 -12.992,-28.995 -28.995,-28.995Zm101.263,62.494c33.226,0 60.201,26.975 60.201,60.201c-0,33.226 -26.975,60.201 -60.201,60.201c-33.225,-0 -60.2,-26.975 -60.2,-60.201c-0,-33.226 26.975,-60.201 60.2,-60.201Zm0,31.206c-16.003,-0 -28.995,12.992 -28.995,28.995c0,16.003 12.992,28.995 28.995,28.995c16.003,0 28.995,-12.992 28.995,-28.995c0,-16.003 -12.992,-28.995 -28.995,-28.995Zm42.642,98.051c33.225,0 60.2,26.976 60.2,60.201c0,33.226 -26.975,60.201 -60.2,60.201c-33.226,-0 -60.201,-26.975 -60.201,-60.201c-0,-33.225 26.975,-60.201 60.201,-60.201Zm-0,31.206c-16.003,-0 -28.996,12.992 -28.996,28.995c0,16.003 12.993,28.995 28.996,28.995c16.003,0 28.995,-12.992 28.995,-28.995c-0,-16.003 -12.992,-28.995 -28.995,-28.995Zm-0.645,102.685c33.226,0 60.201,26.975 60.201,60.201c-0,33.226 -26.975,60.201 -60.201,60.201c-33.226,-0 -60.201,-26.975 -60.201,-60.201c0,-33.226 26.975,-60.201 60.201,-60.201Zm0,31.206c-16.003,-0 -28.995,12.992 -28.995,28.995c-0,16.003 12.992,28.995 28.995,28.995c16.003,0 28.995,-12.992 28.995,-28.995c0,-16.003 -12.992,-28.995 -28.995,-28.995Zm-59.556,93.845c33.226,0 60.201,26.975 60.201,60.201c-0,33.226 -26.975,60.201 -60.201,60.201c-33.226,-0 -60.201,-26.975 -60.201,-60.201c0,-33.226 26.975,-60.201 60.201,-60.201Zm-0,31.206c-16.003,-0 -28.995,12.992 -28.995,28.995c-0,16.003 12.992,28.995 28.995,28.995c16.003,0 28.995,-12.992 28.995,-28.995c0,-16.003 -12.992,-28.995 -28.995,-28.995Zm-102.933,56.494c33.226,-0 60.201,26.975 60.201,60.201c-0,33.225 -26.975,60.2 -60.201,60.2c-33.226,0 -60.201,-26.975 -60.201,-60.2c0,-33.226 26.975,-60.201 60.201,-60.201Zm0,31.205c-16.003,0 -28.995,12.993 -28.995,28.996c-0,16.002 12.992,28.995 28.995,28.995c16.003,-0 28.995,-12.993 28.995,-28.995c0,-16.003 -12.992,-28.996 -28.995,-28.996Z" style="fill:#fff;"/></g></g></svg>