<?xml version="1.0" encoding="UTF-8" standalone="no"?><!DOCTYPE svg PUBLIC "-//W3C//DTD SVG 1.1//EN" "http://www.w3.org/Graphics/SVG/1.1/DTD/svg11.dtd"><svg width="100%" height="100%" viewBox="0 0 1025 1025" version="1.1" xmlns="http://www.w3.org/2000/svg" xmlns:xlink="http://www.w3.org/1999/xlink" xml:space="preserve" xmlns:serif="http://www.serif.com/" style="fill-rule:evenodd;clip-rule:evenodd;stroke-linejoin:round;stroke-miterlimit:2;"><rect id="icon-square-dark" x="0.564" y="0.359" width="1024" height="1024" style="fill:none;"/><clipPath id="_clip1"><rect x="0.564" y="0.359" width="1024" height="1024"/></clipPath><g clip-path="url(#_clip1)"><path d="M1024.56,205.159l-0,614.4c-0,113.032 -91.768,204.8 -204.8,204.8l-614.4,0c-113.033,0 -204.8,-91.768 -204.8,-204.8l-0,-614.4c-0,-113.032 91.767,-204.8 204.8,-204.8l614.4,0c113.032,0 204.8,91.768 204.8,204.8Z" style="fill:url(#_Linear2);"/><g><path d="M389.738,702.292c-0.081,0.082 -0.185,0.135 -0.289,0.188l0.079,-0.05c0.082,-0.014 0.127,-0.124 0.21,-0.138Zm-103.311,-242.06c-5.311,28.689 -30.486,50.444 -60.702,50.444c-34.071,0 -61.733,-27.662 -61.733,-61.733c-0,-34.072 27.662,-61.734 61.733,-61.734c26.453,0 49.043,16.674 57.822,40.077c20.02,-6.695 35.678,-8.538 48.653,-7.519c4.635,-14.286 5.583,-26.592 1.622,-36.772c-3.589,-9.223 -11.317,-16.08 -22.604,-21.156c-10.996,10.112 -25.665,16.289 -41.766,16.289c-34.071,0 -61.733,-27.662 -61.733,-61.733c-0,-34.072 27.662,-61.734 61.733,-61.734c34.072,0 61.734,27.662 61.734,61.734c-0,6.343 -0.959,12.464 -2.739,18.225c17.792,8.992 29.284,21.576 35.197,36.771c6.131,15.758 6.244,34.947 -0.667,57.134c1.615,0.794 3.198,1.618 4.757,2.461c14.216,7.686 25.439,18.936 45.655,19.939c13.071,0.648 29.628,-3.037 52.89,-13.527l-0,-40.807c-9.856,4.429 -21.206,6.565 -32.377,6.288c-24.144,-0.598 -34.299,-12.031 -35.413,-13.172c-8.818,-9.024 -10.779,-19.438 -11.528,-23.604c-0.943,-5.251 -1.024,-8.271 -1.354,-12.769c-0.121,-1.648 -0.063,-3.037 -0.37,-6.431c-0.054,-0.601 -0.036,-4.89 -1.226,-8.678c-0.75,-2.388 -0.745,-3.416 -3.151,-7.182c-0.244,-0.382 -1.332,-2.273 -3.682,-4.8c-0.447,-0.481 -0.317,-0.564 -1.294,-2.376c-1.181,-2.192 -2.41,-3.959 -2.423,-3.986c-0.304,-0.626 -0.936,-2.026 -2.389,-4.574c-0.051,-0.089 -0.076,-0.199 -0.154,-0.266c0.132,0.021 0.115,-0.061 1.574,-0.568c0.299,-0.103 2.925,-1.015 3.78,-1.186c1.013,-0.203 3.767,-0.346 4.096,-0.363c2.097,-0.108 3.733,-0.06 3.955,-0.055c0.087,0.002 5.416,1.514 9.781,4.153c6.679,4.037 10.042,8.401 10.736,9.302c4.098,5.318 6.357,10.723 7.499,13.568c0.104,0.259 1.833,5.301 2.774,9.45c2.484,10.956 2.426,10.983 3.802,14.368c1.51,3.713 3.792,5.079 7.855,6.147c12.988,3.415 34.511,-1.729 36.413,-12.6c0.133,-0.759 0.226,-1.356 0.309,-1.857c-7.923,-35.705 -32.431,-57.578 -69.566,-76.896c-6.453,2.291 -13.398,3.538 -20.632,3.538c-34.071,0 -61.733,-27.662 -61.733,-61.733c-0,-34.072 27.662,-61.734 61.733,-61.734c34.072,0 61.734,27.662 61.734,61.734c-0,14.036 -4.695,26.984 -12.598,37.359c49.082,28.641 75.849,64.066 75.849,125.008l-0,256c-0,51.543 -23.417,98.656 -59.5,124.321c9.92,10.955 15.967,25.483 15.967,41.413c-0,34.071 -27.662,61.733 -61.734,61.733c-34.071,-0 -61.733,-27.662 -61.733,-61.733c-0,-34.072 27.662,-61.734 61.733,-61.734c5.057,0 9.972,0.609 14.677,1.758c0.533,-0.352 1.093,-0.676 1.679,-0.969c28.751,-14.375 48.905,-45.533 54.989,-81.696c-0.953,-1.092 -1.551,-2.249 -3.47,-4.365c-6.538,-7.208 -20.174,-15.53 -31.783,-8.146c-1.449,0.922 -2.533,1.881 -2.545,1.889c-0.146,0.096 -0.479,0.753 -0.751,2.104c-0.158,0.781 -0.556,2.106 -0.928,6.573c-0.056,0.665 -0.667,6.574 -1.075,8.902c-0.875,4.991 -1.501,6.993 -1.686,7.586c-1.327,4.24 -2.989,8.209 -5.18,11.942c-0.098,0.168 -2.291,3.743 -6.074,7.479c-0.814,0.804 -3.332,3.363 -8.593,6.318c-0.57,0.32 -6.707,1.085 -7.393,1.021c-2.118,-0.196 -4.477,-0.65 -4.863,-0.724c-0.093,-0.018 -0.185,-0.071 -0.278,-0.056c0.001,-0.001 0.29,-1.302 0.523,-2.694c0.273,-1.634 0.16,-1.653 0.468,-2.787c0.891,-3.28 1.065,-5.626 1.078,-5.668c0.022,-0.074 1.13,-2.126 1.895,-4.864c0.406,-1.457 1.064,-3.212 1.191,-6.8c0.014,-0.407 0.409,-2.65 -0.029,-7.114c-0.288,-2.923 -0.18,-2.929 -0.468,-5.853c-0.05,-0.515 -0.366,-6.092 -0.396,-6.622c-0.001,-0.006 -0.081,-3.32 0.042,-6.352c0.193,-4.761 1.018,-17.571 11.901,-26.87c16.82,-14.37 39.706,-16.192 60.336,-5.087l-0,-39.338c-31.867,-12.256 -53.882,2.741 -76.581,15.388c-3.829,2.133 -7.669,4.233 -11.546,6.232c3.286,29.626 -8.645,58.261 -36.185,81.626c4.611,8.645 7.225,18.514 7.225,28.988c0,34.072 -27.662,61.734 -61.733,61.734c-34.072,-0 -61.734,-27.662 -61.734,-61.734c0,-34.071 27.662,-61.733 61.734,-61.733c11.974,-0 23.156,3.416 32.624,9.327c16.207,-13.4 25.369,-29.118 26.432,-45.86c-18.159,4.248 -38.276,3.367 -62.424,-8.001c-8.863,23.239 -31.369,39.766 -57.705,39.766c-34.071,-0 -61.733,-27.662 -61.733,-61.734c-0,-34.071 27.662,-61.733 61.733,-61.733c29.661,-0 54.465,20.964 60.389,48.87c10.87,6.493 20.66,10.086 29.665,11.592c4.762,-12.24 6.708,-28.861 1.271,-41.371c-0.918,-2.112 -1.209,-2.636 -3.034,-5.396c-0.178,-0.268 -0.685,-1.035 -2.526,-3.121c-0.617,-0.699 -2.332,-2.346 -2.967,-2.873c-0.614,-0.51 -0.625,-0.492 -1.229,-1.014c-2.005,-1.733 -3.468,-2.35 -5.556,-3.523c-0.178,-0.1 -1.231,-0.826 -6.086,-2.695c-1.781,-0.686 -3.372,-1.141 -3.382,-1.145c-0.09,-0.038 -1.327,-1.144 -4.441,-3.166c-0.522,-0.339 -1.034,-0.901 -2.925,-2.429c-0.716,-0.579 -0.704,-0.592 -0.778,-0.621c-0.314,-0.124 -0.327,0.184 -0.643,0.059c0.151,-0.154 0.459,-0.062 0.61,-0.216c0.011,-0.012 0.732,-1.44 1.924,-3.477c0.02,-0.035 -0.049,-0.223 2.171,-2.644c1.236,-1.349 2.421,-2.504 2.426,-2.507c0.696,-0.4 3.278,-1.399 3.567,-1.511c0.141,-0.055 2.979,-1.296 8.124,-2.22c2.046,-0.368 3.737,-0.644 7.483,-0.526c5.382,0.169 8.392,1.022 9.099,1.222c4.651,1.318 7.71,2.855 10.908,4.91c1.116,0.717 5.091,3.254 9.886,8.987c1.561,1.867 3.306,4.743 3.567,5.172c9.447,15.568 11.046,36.743 6.95,56.236c8.069,-3.044 15.695,-7.209 23.264,-11.426c27.805,-15.491 55.139,-31.162 92.156,-21.185l-0,-76.405c-11.07,4.285 -20.851,7.109 -29.591,8.808c0.835,13.298 -1.061,31.136 -15.55,42.514c-7.475,5.869 -15.409,7.248 -15.928,7.354c-4.629,0.945 -7.291,0.907 -9.348,0.873c-0.15,-0.003 -1.814,0.078 -6.171,-0.65c-2.25,-0.376 -8.169,-2.415 -8.667,-2.64c-1.518,-0.688 -5.357,-2.677 -6.183,-3.203c-1.519,-0.965 -2.568,-1.671 -3.75,-2.485c-0.339,-0.232 -0.266,-0.295 -0.488,-0.643c-0.205,-0.321 -2.24,-3.509 -2.492,-4.059c-0.011,-0.023 -0.579,-1.467 -1.038,-2.689c-0.326,-0.868 -0.285,-0.886 -0.388,-1.044c-0.187,-0.286 -0.355,-0.092 -0.541,-0.377l0.439,0.101c0.066,-0.064 1.174,-1.134 2.558,-2.529c0.972,-0.982 1.074,-0.855 4.106,-3.293c0.162,-0.131 0.299,-0.3 0.485,-0.393c0.034,-0.018 1.511,-0.414 3.975,-1.235c0.538,-0.18 2.439,-0.643 5.298,-1.643c0.641,-0.224 2.947,-0.696 5.901,-1.787c0.813,-0.3 1.496,-0.412 2.876,-0.886c1.225,-0.422 1.607,-0.435 2.908,-0.907c1.076,-0.391 1.958,-0.559 3.321,-1.195c1.189,-0.554 3.635,-1.327 4.973,-3.758c1.936,-3.516 2.067,-9.207 1.703,-14.087c-16.097,-2.171 -28.124,-8.666 -39.789,-15.763c-9.167,-5.578 -17.961,-11.769 -30.346,-13.961c-11.871,-2.1 -26.8,-0.369 -48.125,7.723Zm84.094,-145.332l-0.378,-0.132c0.132,0.02 0.255,0.076 0.378,0.132Zm0.397,0.141c-0.139,-0.021 -0.267,-0.082 -0.397,-0.141l0.123,0.043c0.074,0.063 0.2,0.035 0.274,0.098Zm18.531,387.439l-0.306,0.196c0.086,-0.086 0.196,-0.14 0.306,-0.196Zm-163.063,-145.971c-16.41,-0 -29.733,13.323 -29.733,29.733c-0,16.411 13.323,29.734 29.733,29.734c16.411,-0 29.734,-13.323 29.734,-29.734c-0,-16.41 -13.323,-29.733 -29.734,-29.733Zm-0.661,-137.3c-16.41,0 -29.733,13.323 -29.733,29.734c-0,16.41 13.323,29.733 29.733,29.733c16.411,0 29.734,-13.323 29.734,-29.733c-0,-16.411 -13.323,-29.734 -29.734,-29.734Zm43.727,-132.548c-16.41,0 -29.733,13.323 -29.733,29.734c-0,16.41 13.323,29.733 29.733,29.733c16.411,0 29.734,-13.323 29.734,-29.733c-0,-16.411 -13.323,-29.734 -29.734,-29.734Zm103.842,-96.086c-16.41,0 -29.733,13.323 -29.733,29.734c-0,16.41 13.323,29.733 29.733,29.733c16.41,0 29.734,-13.323 29.734,-29.733c-0,-16.411 -13.324,-29.734 -29.734,-29.734Zm19.718,584.101c-16.41,0 -29.733,13.323 -29.733,29.734c-0,16.41 13.323,29.733 29.733,29.733c16.411,-0 29.734,-13.323 29.734,-29.733c-0,-16.411 -13.323,-29.734 -29.734,-29.734Zm-105.553,-89.932c-16.41,-0 -29.734,13.323 -29.734,29.733c0,16.411 13.324,29.734 29.734,29.734c16.41,-0 29.733,-13.323 29.733,-29.734c0,-16.41 -13.323,-29.733 -29.733,-29.733Zm367.127,-369.837l0.398,-0.139c-0.122,0.07 -0.26,0.104 -0.398,0.139Zm-0.377,0.134c0.115,-0.067 0.246,-0.101 0.377,-0.134l-0.103,0.036c-0.097,-0.001 -0.177,0.1 -0.274,0.098Zm-18.516,387.449l0.291,0.186c-0.108,-0.041 -0.199,-0.113 -0.291,-0.186Zm-0.304,-0.198c0.113,0.043 0.209,0.121 0.304,0.198l-0.093,-0.06c-0.046,-0.07 -0.165,-0.068 -0.211,-0.138Zm-49.041,60.705c-36.082,-25.665 -59.499,-72.778 -59.499,-124.321l-0,-256c-0,-60.942 26.766,-96.367 75.849,-125.008c-7.904,-10.375 -12.598,-23.323 -12.598,-37.359c-0,-34.072 27.661,-61.734 61.733,-61.734c34.072,0 61.734,27.662 61.734,61.734c-0,34.071 -27.662,61.733 -61.734,61.733c-7.234,0 -14.179,-1.247 -20.632,-3.538c-37.135,19.318 -61.643,41.191 -69.566,76.896c0.083,0.501 0.176,1.098 0.309,1.857c2,11.429 25.633,16.49 38.262,12.04c3.793,-1.336 4.975,-3.08 6.16,-5.974c1.2,-2.933 1.18,-3.098 3.648,-13.981c0.722,-3.182 2.264,-8.222 3.051,-10.138c1.418,-3.447 3.807,-8.725 8.021,-13.887c0.123,-0.15 2.568,-3.065 6.506,-5.992c2.141,-1.591 5.865,-4.191 12.721,-6.325c0.78,-0.243 0.795,-0.144 1.611,-0.146c3.401,-0.009 6.174,0.343 6.895,0.428c0.065,0.008 2.063,0.56 4.458,1.418c0.861,0.308 0.853,0.34 0.932,0.341c0,0 -0.869,1.485 -1.731,3.18c-0.6,1.179 -0.523,1.217 -1.132,2.14c-2.147,3.256 -3.143,5.609 -3.17,5.64c-0.059,0.07 -2.305,2.26 -4.617,6.164c-1.319,2.228 -1.813,3.768 -2.616,6.648c-0.935,3.354 -0.901,5.995 -1.134,9.022c-0.248,3.219 -0.129,3.222 -0.365,6.576c-0.233,3.307 -0.406,7.641 -1.677,13.746c-0.672,3.224 -3.902,19.335 -19.861,28.172c-15.567,8.62 -39.893,8.853 -59.057,0.254l-0,40.815c23.262,10.49 39.818,14.175 52.889,13.527c20.216,-1.003 31.439,-12.253 45.655,-19.939c1.559,-0.843 3.142,-1.667 4.758,-2.461c-6.912,-22.187 -6.799,-41.376 -0.668,-57.134c5.913,-15.195 17.406,-27.779 35.198,-36.771c-1.781,-5.761 -2.74,-11.882 -2.74,-18.225c0,-34.072 27.662,-61.734 61.734,-61.734c34.072,0 61.733,27.662 61.733,61.734c0,34.071 -27.661,61.733 -61.733,61.733c-16.101,0 -30.77,-6.177 -41.766,-16.289c-11.287,5.076 -19.015,11.933 -22.603,21.156c-3.961,10.18 -3.014,22.486 1.621,36.772c12.976,-1.019 28.633,0.824 48.653,7.519c8.779,-23.403 31.369,-40.077 57.822,-40.077c34.072,0 61.733,27.662 61.733,61.734c0,34.071 -27.661,61.733 -61.733,61.733c-30.216,0 -55.391,-21.755 -60.702,-50.444c-21.325,-8.092 -36.254,-9.823 -48.125,-7.723c-12.385,2.192 -21.179,8.383 -30.346,13.961c-11.665,7.097 -23.692,13.592 -39.789,15.763c-0.439,5.85 -0.207,13.385 3.44,16.103c1.172,0.874 1.602,1.023 3.556,1.886c0.955,0.422 2.129,0.764 2.317,0.819c0.573,0.167 1.274,0.478 2.735,0.87c0.86,0.231 1.13,0.398 2.722,0.844c1.82,0.509 2.528,0.981 6.473,1.963c0.513,0.127 1.904,0.705 5.221,1.625c0.967,0.268 1.326,0.466 4.35,1.347c0.386,0.113 0.293,0.262 3.995,3.051c0.403,0.303 0.385,0.32 0.737,0.676c1.384,1.395 2.492,2.465 2.558,2.529l0.439,-0.101c-0.12,0.184 -0.42,0.193 -0.54,0.377c-0.003,0.004 -0.479,1.31 -1.18,3.108c-0.29,0.744 -0.347,0.822 -1.342,2.449c-0.886,1.45 -1.749,2.784 -1.752,2.787c-0.007,0.007 -3.241,2.238 -4.419,2.888c-4.462,2.465 -5.871,2.975 -6.409,3.17c-5.436,1.969 -7.732,2.336 -8.425,2.446c-2.662,0.425 -4.625,0.679 -8.667,0.538c-1.121,-0.039 -6.225,-0.428 -10.996,-2.114c-4.601,-1.626 -25.926,-9.428 -26.941,-40.844c-0.087,-2.671 -0.018,-5.289 0.139,-7.754c-8.743,-1.698 -18.528,-4.523 -29.602,-8.81l-0,76.405c37.016,-9.977 64.35,5.694 92.155,21.185c7.569,4.217 15.195,8.382 23.264,11.426c-4.096,-19.493 -2.496,-40.668 6.95,-56.236c1.659,-2.732 4.235,-6.633 9.218,-10.967c0.553,-0.481 3.41,-3.118 8.908,-5.83c1.208,-0.595 5.245,-2.173 8.011,-2.699c0.908,-0.173 5.806,-1.105 11.535,-0.749c1.435,0.089 4.166,0.647 4.525,0.721c3.082,0.63 5.652,1.336 9.967,3.275c0.324,0.146 0.354,0.097 0.609,0.351c1.295,1.285 2.382,2.424 3.942,4.245c0.577,0.674 2.431,4.237 2.441,4.247c0.15,0.154 0.458,0.062 0.609,0.216c-0.2,0.079 -0.443,-0.138 -0.643,-0.059c-0.008,0.003 -1.273,1.009 -2.282,1.869c-0.662,0.565 -0.994,0.904 -1.42,1.181c-3.115,2.022 -4.352,3.128 -4.441,3.166c-0.052,0.022 -1.987,0.556 -4.305,1.513c-1.271,0.525 -3.134,1.112 -5.835,2.717c-0.253,0.15 -2.805,1.266 -5.096,3.318c-0.558,0.5 -0.644,0.4 -3.085,2.76c-0.602,0.582 -2.241,2.422 -2.932,3.36c-0.191,0.26 -1.615,2.337 -2.189,3.36c-6.308,11.254 -5.981,28.901 -0.057,44.108c9.001,-1.507 18.788,-5.1 29.654,-11.59c5.924,-27.906 30.728,-48.87 60.389,-48.87c34.072,-0 61.733,27.662 61.733,61.733c0,34.072 -27.661,61.734 -61.733,61.734c-26.336,-0 -48.842,-16.527 -57.704,-39.766c-24.148,11.368 -44.266,12.249 -62.424,8.001c1.062,16.742 10.225,32.46 26.431,45.86c9.468,-5.911 20.65,-9.327 32.624,-9.327c34.072,-0 61.734,27.662 61.734,61.733c-0,34.072 -27.662,61.734 -61.734,61.734c-34.071,-0 -61.733,-27.662 -61.733,-61.734c-0,-10.474 2.614,-20.343 7.225,-28.988c-27.54,-23.365 -39.471,-52 -36.185,-81.626c-3.877,-1.999 -7.717,-4.099 -11.545,-6.232c-22.7,-12.647 -44.714,-27.644 -76.581,-15.388l-0,39.347c17.645,-9.435 39.452,-10.788 57.908,3.138c3.234,2.44 13.044,9.751 14.227,26.935c0.203,2.954 0.182,5.98 0.147,8.162c-0.004,0.227 -0.263,4.272 -0.362,6.208c-0.029,0.563 -0.271,2.552 -0.387,5.031c-0.05,1.074 -0.562,4.257 -0.19,7.995c0.081,0.817 -0.033,3.628 1.652,8.57c0.673,1.974 1.466,3.48 1.477,3.514c0.072,0.234 0.079,2.077 1.209,6.143c0.061,0.221 0.143,1.633 0.799,4.731c0.02,0.092 0.009,0.197 0.06,0.275c-0.115,-0.043 -0.112,0.042 -1.517,0.283c-0.288,0.05 -2.79,0.481 -3.624,0.497c-0.996,0.02 -3.487,-0.316 -3.789,-0.357c-1.62,-0.219 -2.937,-0.495 -3.115,-0.531c-0.701,-0.145 -0.668,-0.227 -1.288,-0.589c-4.685,-2.732 -7.646,-5.434 -10.404,-8.675c-2.484,-2.918 -3.607,-4.905 -3.868,-5.366c-2.967,-5.251 -4.456,-10.188 -5.088,-12.266c-0.162,-0.533 -1.268,-5.345 -1.652,-8.4c-0.674,-5.372 -0.955,-8.907 -1.106,-10.121c-0.043,-0.345 -0.302,-2.424 -0.794,-4.269c-0.322,-1.211 -0.373,-1.231 -1.364,-1.998c-1.725,-1.333 -9.556,-7.718 -22.681,-1.29c-8.317,4.073 -12.775,10.488 -13.133,10.997c-0.43,0.396 -0.841,0.817 -1.249,1.243c6.019,36.299 26.206,67.597 55.043,82.015c0.585,0.293 1.145,0.617 1.678,0.969c4.705,-1.149 9.62,-1.758 14.677,-1.758c34.072,0 61.734,27.662 61.734,61.734c-0,34.071 -27.662,61.733 -61.734,61.733c-34.072,-0 -61.733,-27.662 -61.733,-61.733c-0,-15.93 6.046,-30.458 15.966,-41.413Zm45.767,11.679c-16.41,0 -29.733,13.323 -29.733,29.734c-0,16.41 13.323,29.733 29.733,29.733c16.41,-0 29.734,-13.323 29.734,-29.733c-0,-16.411 -13.324,-29.734 -29.734,-29.734Zm19.718,-584.101c-16.41,0 -29.733,13.323 -29.733,29.734c-0,16.41 13.323,29.733 29.733,29.733c16.41,0 29.734,-13.323 29.734,-29.733c-0,-16.411 -13.324,-29.734 -29.734,-29.734Zm103.842,96.086c-16.41,0 -29.734,13.323 -29.734,29.734c0,16.41 13.324,29.733 29.734,29.733c16.41,0 29.733,-13.323 29.733,-29.733c0,-16.411 -13.323,-29.734 -29.733,-29.734Zm43.727,132.548c-16.41,0 -29.734,13.323 -29.734,29.734c0,16.41 13.324,29.733 29.734,29.733c16.41,0 29.733,-13.323 29.733,-29.733c0,-16.411 -13.323,-29.734 -29.733,-29.734Zm-0.661,137.3c-16.41,-0 -29.734,13.323 -29.734,29.733c0,16.411 13.324,29.734 29.734,29.734c16.41,-0 29.733,-13.323 29.733,-29.734c0,-16.41 -13.323,-29.733 -29.733,-29.733Zm-61.073,128.235c-16.41,-0 -29.733,13.323 -29.733,29.733c-0,16.411 13.323,29.734 29.733,29.734c16.411,-0 29.734,-13.323 29.734,-29.734c-0,-16.41 -13.323,-29.733 -29.734,-29.733Z" style="fill:#c0caf5;"/></g></g><defs><linearGradient id="_Linear2" x1="0" y1="0" x2="1" y2="0" gradientUnits="userSpaceOnUse" gradientTransform="matrix(4.61017e-12,1024,-1024,4.61017e-12,512.564,0.359041)"><stop offset="0" style="stop-color:#262638;stop-opacity:1"/><stop offset="1" style="stop-color:#111219;stop-opacity:1"/></linearGradient></defs></svg>